<svg id="Layer_1" data-name="Layer 1" xmlns="http://www.w3.org/2000/svg" viewBox="0 0 47.14 47.15">
  <title>documents1</title>
  <g>
    <path d="M.46,47.6V8.67H18.14a.36.36,0,0,1,.28.12l6,6c1.43,1.43,2.85,2.88,4.3,4.29a1.11,1.11,0,0,1,.42,1.06,1.08,1.08,0,0,0,0,.18V47.6Zm26.63-2V21H16.85V10.73H2.51V45.56ZM18.9,18.9h6.67L18.9,12.24Z" transform="translate(-0.46 -0.45)"/>
    <path d="M20.94,2.53V8.4l-.12-.11L19,6.45a.26.26,0,0,1-.09-.19V.47h17a2.3,2.3,0,0,0,.37,0,.92.92,0,0,1,.77.3l7.77,7.79,2.67,2.67a.39.39,0,0,1,.1.25q0,13.91,0,27.8v.14H31.21v-2H45.54V12.77H35.3V2.53ZM44,10.71,37.36,4.05v6.66Z" transform="translate(-0.46 -0.45)"/>
    <path d="M29.41,16.87h12v2.05H31.6a.35.35,0,0,1-.27-.11c-.59-.61-1.19-1.2-1.79-1.8Z" transform="translate(-0.46 -0.45)"/>
    <path d="M41.44,29.18v2H31.21v-2Z" transform="translate(-0.46 -0.45)"/>
    <path d="M37.34,23v2H31.21V23Z" transform="translate(-0.46 -0.45)"/>
    <path d="M6.61,27.1v-2H23v2Z" transform="translate(-0.46 -0.45)"/>
    <path d="M23,37.38v2H6.61v-2Z" transform="translate(-0.46 -0.45)"/>
    <path d="M6.61,33.26v-2H18.89v2Z" transform="translate(-0.46 -0.45)"/>
  </g>
</svg>
